<svg width="86" height="100" viewBox="0 0 86 100" fill="none" xmlns="http://www.w3.org/2000/svg">
<g clip-path="url(#clip0)">
<path d="M72.8834 61.3734C72.8834 65.6652 69.3719 69.1767 65.08 69.1767C60.7882 69.1767 57.2767 65.6652 57.2767 61.3734C57.2767 57.0815 60.7882 53.57 65.08 53.57C69.3719 53.57 72.8834 57.0815 72.8834 61.3734Z" fill="#72E39A"/>
<path d="M71.0496 56.3792C69.606 54.6625 67.4601 53.609 65.08 53.609C60.7882 53.609 57.2767 57.1206 57.2767 61.4124C57.2767 62.3098 57.4327 63.1682 57.7059 63.9875C62.1148 61.3734 66.5627 58.7983 71.0496 56.3792Z" fill="#00D487"/>
<path d="M70.8935 61.2563C70.8935 64.5338 68.2404 67.1869 64.963 67.1869C61.6855 67.1869 59.0324 64.5338 59.0324 61.2563C59.0324 57.9789 61.6855 55.3258 64.963 55.3258C68.2404 55.3258 70.8935 57.9789 70.8935 61.2563Z" fill="#20BE75"/>
<path d="M71.0496 61.4905C71.0496 64.7289 68.4355 67.343 65.1971 67.343C61.9587 67.343 59.3445 64.7289 59.3445 61.4905C59.3445 58.2521 61.9587 55.6379 65.1971 55.6379C68.4355 55.6379 71.0496 58.2911 71.0496 61.4905Z" fill="#00D789"/>
<path d="M62.2709 62.5049C62.2709 62.5049 61.8027 60.32 64.0266 59.2275C65.8994 58.2911 69.3719 59.6567 69.3719 59.6567C69.3719 59.6567 67.8503 62.856 66.6407 63.6364C64.2997 65.158 62.7 63.3633 62.7 63.3633C62.7 63.3633 61.7636 63.5193 60.5931 64.2607C60.5931 64.2607 63.0902 62.1147 66.0555 61.1003C66.0165 61.0613 63.4414 61.4905 62.2709 62.5049Z" fill="#00C36E"/>
<path d="M62.2709 62.1928C62.2709 62.1928 61.8027 60.0078 64.0266 58.9154C65.8994 57.9789 69.3719 59.3445 69.3719 59.3445C69.3719 59.3445 67.8503 62.5439 66.6407 63.3242C64.2997 64.8459 62.7 63.0511 62.7 63.0511C62.7 63.0511 61.7636 63.2072 60.5931 63.9485C60.5931 63.9485 63.0902 61.8026 66.0555 60.7882C66.0165 60.7491 63.4414 61.2173 62.2709 62.1928Z" fill="white"/>
<path d="M82.5205 80.2575C82.5205 88.8802 75.5365 95.8642 66.9138 95.8642C58.2911 95.8642 51.3071 88.8802 51.3071 80.2575C51.3071 71.6348 58.2911 64.6508 66.9138 64.6508C75.5365 64.6508 82.5205 71.6348 82.5205 80.2575Z" fill="#72E39A"/>
<path d="M78.8529 70.1912C76.0047 66.7967 71.7129 64.6118 66.9138 64.6118C58.2911 64.6118 51.3071 71.5958 51.3071 80.2185C51.3071 82.0133 51.6192 83.769 52.2045 85.3687C60.9832 80.1795 69.8791 75.1073 78.8529 70.1912Z" fill="#00D487"/>
<path d="M78.5408 79.9844C78.5408 86.5392 73.2345 91.8455 66.6797 91.8455C60.1249 91.8455 54.8186 86.5392 54.8186 79.9844C54.8186 73.4296 60.1249 68.1233 66.6797 68.1233C73.2345 68.1233 78.5408 73.4296 78.5408 79.9844Z" fill="#20BE75"/>
<path d="M78.8529 80.4916C78.8529 86.9684 73.6246 92.1967 67.1478 92.1967C60.6711 92.1967 55.4428 86.9684 55.4428 80.4916C55.4428 74.0148 60.6711 68.7866 67.1478 68.7866C73.6246 68.7866 78.8529 74.0148 78.8529 80.4916Z" fill="#00D789"/>
<path d="M61.2564 82.4815C61.2564 82.4815 60.32 78.1116 64.7679 75.9267C68.4745 74.0929 75.4585 76.785 75.4585 76.785C75.4585 76.785 72.4152 83.1448 69.9961 84.7444C65.3141 87.7877 62.1148 84.1592 62.1148 84.1592C62.1148 84.1592 60.2419 84.4713 57.9009 85.9149C57.9009 85.9149 62.8951 81.6231 68.8256 79.5552C68.7866 79.5552 63.6364 80.4916 61.2564 82.4815Z" fill="#00C36E"/>
<path d="M61.2564 81.8962C61.2564 81.8962 60.32 77.5263 64.7679 75.3414C68.4745 73.5076 75.4585 76.1998 75.4585 76.1998C75.4585 76.1998 72.4152 82.5595 69.9961 84.1592C65.3141 87.2025 62.1148 83.5739 62.1148 83.5739C62.1148 83.5739 60.2419 83.8861 57.9009 85.3297C57.9009 85.3297 62.8951 81.0378 68.8256 78.9699C68.7866 78.9699 63.6364 79.8673 61.2564 81.8962Z" fill="white"/>
<path d="M29.0675 57.9789H1.75576C0.780336 57.9789 0 57.1986 0 56.2232V1.75575C0 0.780336 0.780336 0 1.75576 0H29.1065C30.0429 0 30.8233 0.780336 30.8233 1.75575V56.2622C30.8233 57.1986 30.0429 57.9789 29.0675 57.9789Z" fill="#EFEFEF"/>
<path d="M26.6095 5.34531H4.21384C3.78465 5.34531 3.4335 4.99416 3.4335 4.56497C3.4335 4.13579 3.78465 3.78464 4.21384 3.78464H26.6095C27.0387 3.78464 27.3898 4.13579 27.3898 4.56497C27.3898 4.99416 27.0387 5.34531 26.6095 5.34531Z" fill="white"/>
<path d="M26.6095 7.92041H4.21384C3.78465 7.92041 3.4335 7.56926 3.4335 7.14008C3.4335 6.71089 3.78465 6.35974 4.21384 6.35974H26.6095C27.0387 6.35974 27.3898 6.71089 27.3898 7.14008C27.3898 7.56926 27.0387 7.92041 26.6095 7.92041Z" fill="white"/>
<path d="M14.1631 10.4955H4.21384C3.78465 10.4955 3.4335 10.1444 3.4335 9.71518C3.4335 9.286 3.78465 8.93484 4.21384 8.93484H14.1241C14.5533 8.93484 14.9044 9.286 14.9044 9.71518C14.9435 10.1444 14.5923 10.4955 14.1631 10.4955Z" fill="white"/>
<path d="M26.6095 14.9825H4.21384C3.78465 14.9825 3.4335 14.6313 3.4335 14.2021C3.4335 13.7729 3.78465 13.4218 4.21384 13.4218H26.6095C27.0387 13.4218 27.3898 13.7729 27.3898 14.2021C27.3898 14.6313 27.0387 14.9825 26.6095 14.9825Z" fill="white"/>
<path d="M26.6095 17.5576H4.21384C3.78465 17.5576 3.4335 17.2064 3.4335 16.7772C3.4335 16.348 3.78465 15.9969 4.21384 15.9969H26.6095C27.0387 15.9969 27.3898 16.348 27.3898 16.7772C27.3898 17.2064 27.0387 17.5576 26.6095 17.5576Z" fill="white"/>
<path d="M14.1631 20.1327H4.21384C3.78465 20.1327 3.4335 19.7815 3.4335 19.3523C3.4335 18.9231 3.78465 18.572 4.21384 18.572H14.1241C14.5533 18.572 14.9044 18.9231 14.9044 19.3523C14.9435 19.7815 14.5923 20.1327 14.1631 20.1327Z" fill="white"/>
<path d="M26.6095 24.6196H4.21384C3.78465 24.6196 3.4335 24.2684 3.4335 23.8392C3.4335 23.41 3.78465 23.0589 4.21384 23.0589H26.6095C27.0387 23.0589 27.3898 23.41 27.3898 23.8392C27.3898 24.2684 27.0387 24.6196 26.6095 24.6196Z" fill="white"/>
<path d="M26.6095 27.1557H4.21384C3.78465 27.1557 3.4335 26.8045 3.4335 26.3753C3.4335 25.9462 3.78465 25.595 4.21384 25.595H26.6095C27.0387 25.595 27.3898 25.9462 27.3898 26.3753C27.3898 26.8435 27.0387 27.1557 26.6095 27.1557Z" fill="white"/>
<path d="M14.1631 29.7308H4.21384C3.78465 29.7308 3.4335 29.3796 3.4335 28.9504C3.4335 28.5213 3.78465 28.1701 4.21384 28.1701H14.1241C14.5533 28.1701 14.9044 28.5213 14.9044 28.9504C14.9435 29.3796 14.5923 29.7308 14.1631 29.7308Z" fill="white"/>
<path d="M26.6095 34.2177H4.21384C3.78465 34.2177 3.4335 33.8666 3.4335 33.4374C3.4335 33.0082 3.78465 32.657 4.21384 32.657H26.6095C27.0387 32.657 27.3898 33.0082 27.3898 33.4374C27.3898 33.8666 27.0387 34.2177 26.6095 34.2177Z" fill="white"/>
<path d="M26.6095 36.7928H4.21384C3.78465 36.7928 3.4335 36.4417 3.4335 36.0125C3.4335 35.5833 3.78465 35.2321 4.21384 35.2321H26.6095C27.0387 35.2321 27.3898 35.5833 27.3898 36.0125C27.3898 36.4417 27.0387 36.7928 26.6095 36.7928Z" fill="white"/>
<path d="M14.1631 39.3679H4.21384C3.78465 39.3679 3.4335 39.0168 3.4335 38.5876C3.4335 38.1584 3.78465 37.8073 4.21384 37.8073H14.1241C14.5533 37.8073 14.9044 38.1584 14.9044 38.5876C14.9435 39.0168 14.5923 39.3679 14.1631 39.3679Z" fill="white"/>
<path d="M26.6095 43.8549H4.21384C3.78465 43.8549 3.4335 43.5037 3.4335 43.0745C3.4335 42.6453 3.78465 42.2942 4.21384 42.2942H26.6095C27.0387 42.2942 27.3898 42.6453 27.3898 43.0745C27.3898 43.5037 27.0387 43.8549 26.6095 43.8549Z" fill="white"/>
<path d="M26.6095 46.43H4.21384C3.78465 46.43 3.4335 46.0788 3.4335 45.6496C3.4335 45.2204 3.78465 44.8693 4.21384 44.8693H26.6095C27.0387 44.8693 27.3898 45.2204 27.3898 45.6496C27.3898 46.0788 27.0387 46.43 26.6095 46.43Z" fill="white"/>
<path d="M14.1631 49.0051H4.21384C3.78465 49.0051 3.4335 48.6539 3.4335 48.2247C3.4335 47.7955 3.78465 47.4444 4.21384 47.4444H14.1241C14.5533 47.4444 14.9044 47.7955 14.9044 48.2247C14.9435 48.6539 14.5923 49.0051 14.1631 49.0051Z" fill="white"/>
<path d="M24.1904 100H20.5228C16.309 100 12.9146 96.5665 12.9146 92.3918V13.3437C12.9146 9.12993 16.348 5.73547 20.5228 5.73547H24.1904C19.9766 5.73547 16.5821 9.12993 16.5821 13.3437V92.3918C16.5821 96.6056 19.9766 100 24.1904 100Z" fill="#7DE8EF"/>
<path d="M63.2072 13.3437V92.3917C63.2072 96.6056 59.8127 100 55.5989 100H24.1904C19.9766 100 16.5821 96.5665 16.5821 92.3917V13.3437C16.5821 9.12993 20.0156 5.73547 24.1904 5.73547H55.5599C59.7737 5.69645 63.2072 9.12993 63.2072 13.3437Z" fill="#9DFFED"/>
<path d="M63.2071 13.3437V92.3917C63.2071 96.6056 59.8127 100 55.5989 100H51.8923C56.1061 100 59.5005 96.5665 59.5005 92.3917V13.3437C59.5005 9.12993 56.1061 5.73547 51.8923 5.73547H55.5598C59.7737 5.69645 63.2071 9.12993 63.2071 13.3437Z" fill="#9DFFED"/>
<path d="M54.5064 97.698H25.2438C21.9274 97.698 19.2353 95.0059 19.2353 91.6894V14.007C19.2353 10.6906 21.9274 7.99844 25.2438 7.99844H54.5064C57.8229 7.99844 60.515 10.6906 60.515 14.007V91.6894C60.515 95.0059 57.8229 97.698 54.5064 97.698Z" fill="white"/>
<path d="M46.1569 94.0695H32.1498C32.0328 94.0695 31.9157 93.9524 31.9157 93.8354V93.7573C31.9157 93.6403 32.0328 93.5232 32.1498 93.5232H46.1569C46.2739 93.5232 46.391 93.6403 46.391 93.7573V93.8354C46.391 93.9524 46.2739 94.0695 46.1569 94.0695Z" fill="#DDE6E9"/>
<path d="M28.0921 6.55483V7.84238C28.0921 9.286 29.2626 10.4565 30.7062 10.4565H49.0441C50.4877 10.4565 51.6582 9.286 51.6582 7.84238V5.96957L28.0921 6.55483Z" fill="#9DFFED"/>
<path d="M47.8736 8.07648C47.8736 8.31058 47.7175 8.46664 47.4834 8.46664C47.2493 8.46664 47.0933 8.31058 47.0933 8.07648C47.0933 7.84238 47.2493 7.68631 47.4834 7.68631C47.7175 7.68631 47.8736 7.88139 47.8736 8.07648Z" fill="#61F0D6"/>
<path d="M43.5037 8.46664H36.2076C35.9735 8.46664 35.8174 8.31058 35.8174 8.07648C35.8174 7.84238 35.9735 7.68631 36.2076 7.68631H43.5037C43.7378 7.68631 43.8939 7.84238 43.8939 8.07648C43.8939 8.31058 43.6988 8.46664 43.5037 8.46664Z" fill="#61F0D6"/>
<path d="M63.2072 16.8552V27.1166H50.4097C47.5614 27.1166 45.2985 24.8147 45.2985 22.0054C45.2985 20.6008 45.8837 19.3133 46.7811 18.3769C47.7175 17.4405 49.0051 16.8942 50.4097 16.8942H63.2072V16.8552Z" fill="#CDD9FC"/>
<path d="M80.4525 23.371H52.8677C50.0194 23.371 47.7565 21.0691 47.7565 18.2599C47.7565 15.4116 50.0585 13.1487 52.8677 13.1487H80.4525C83.3008 13.1487 85.5637 15.4506 85.5637 18.2599C85.6027 21.0691 83.3008 23.371 80.4525 23.371Z" fill="#3766F5"/>
<path d="M52.8287 18.3379C52.8287 17.2454 53.7261 16.348 54.8185 16.348C55.911 16.348 56.8084 17.2454 56.8084 18.3379C56.8084 19.4303 55.911 20.3277 54.8185 20.3277C53.7261 20.3277 52.8287 19.4694 52.8287 18.3379Z" fill="#9BB3FA"/>
<path d="M60.515 18.3379C60.515 17.2454 61.4124 16.348 62.5049 16.348C63.5973 16.348 64.4947 17.2454 64.4947 18.3379C64.4947 19.4303 63.5973 20.3277 62.5049 20.3277C61.4124 20.3277 60.515 19.4694 60.515 18.3379Z" fill="#9BB3FA"/>
<path d="M68.1623 18.3379C68.1623 17.2454 69.0597 16.348 70.1522 16.348C71.2446 16.348 72.142 17.2454 72.142 18.3379C72.142 19.4303 71.2446 20.3277 70.1522 20.3277C69.0597 20.3277 68.1623 19.4694 68.1623 18.3379Z" fill="#9BB3FA"/>
<path d="M75.8486 18.3379C75.8486 17.2454 76.746 16.348 77.8385 16.348C78.931 16.348 79.8283 17.2454 79.8283 18.3379C79.8283 19.4303 78.931 20.3277 77.8385 20.3277C76.746 20.3277 75.8486 19.4694 75.8486 18.3379Z" fill="#9BB3FA"/>
<path d="M52.5946 30.6672C51.5021 31.4475 49.3952 32.3059 46.2349 31.6036C42.9184 30.8623 41.3578 28.9895 40.6165 27.7019C40.4994 27.5068 40.3043 27.3898 40.0702 27.3898C39.8751 27.3898 39.6801 27.5068 39.563 27.7019C39.446 27.936 39.2509 28.2091 39.0558 28.4822C38.7827 28.8334 38.4705 29.2236 38.0414 29.5747C37.8463 29.7698 37.6122 29.9259 37.3781 30.1209C36.5197 30.7452 35.3882 31.2914 33.9446 31.6036C33.3593 31.7206 32.7741 31.7987 32.2669 31.8377C32.1108 31.8377 31.9157 31.8377 31.7597 31.8377C31.4475 31.8377 31.1354 31.8377 30.8623 31.7987C30.5501 31.7597 30.277 31.7206 30.0039 31.6816C29.7308 31.6426 29.4967 31.5646 29.2626 31.4865C28.9114 31.3695 28.5993 31.2524 28.3262 31.0964C28.2481 31.0573 28.1311 31.0183 28.0531 30.9403C27.897 30.8623 27.7409 30.7452 27.5849 30.6672C27.4678 30.5891 27.3508 30.5501 27.2337 30.5501C27.1167 30.5501 26.9996 30.5891 26.9216 30.6282C26.8045 30.6672 26.7265 30.7452 26.6875 30.8623C26.5704 30.9403 26.5314 31.0573 26.5314 31.2134C26.5314 31.5256 26.5314 31.9157 26.5314 32.3059C26.5314 32.579 26.5314 32.8911 26.5704 33.2033C26.5704 33.6715 26.6094 34.1787 26.6485 34.6859C26.7655 36.6367 26.9606 38.9387 27.3898 41.2797C27.4288 41.4748 27.4678 41.7089 27.5068 41.904C27.897 44.0109 28.4822 46.1178 29.3016 47.9516C29.4577 48.3028 29.6527 48.6539 29.8088 49.0051C30.5501 50.3316 31.2524 51.5021 31.9547 52.5166C32.3059 53.0238 32.6961 53.492 33.0472 53.9212C33.7885 54.7796 34.6079 55.5599 35.4662 56.2232C35.8954 56.5743 36.3636 56.8474 36.8318 57.1596C37.3 57.4717 37.8073 57.7448 38.3535 57.9789C38.8997 58.252 39.446 58.4861 40.0312 58.7593C42.4112 57.7838 44.245 56.6914 45.8447 55.1697C47.4444 53.6481 48.849 51.6972 50.2926 49.0051C53.1799 43.6208 53.531 34.6859 53.57 31.2134C53.609 30.6672 53.0238 30.355 52.5946 30.6672Z" fill="#F9A63A"/>
<path d="M40.0702 56.7694C39.7581 56.6523 39.485 56.4963 39.2119 56.3402C38.7046 56.1061 38.2754 55.833 37.8463 55.5989C37.4171 55.3258 37.0269 55.0527 36.6367 54.7795C35.8564 54.1943 35.1541 53.531 34.4908 52.7507C34.1397 52.3605 33.8275 51.9313 33.4764 51.4631C32.8131 50.5267 32.1498 49.4342 31.4475 48.1467C31.2914 47.8736 31.1354 47.5224 30.9793 47.2103C30.316 45.6886 29.7308 43.7768 29.3016 41.5919C29.2626 41.3968 29.2236 41.2017 29.1845 40.9676C28.8334 39.0168 28.5993 36.8708 28.4822 34.6079C28.4432 34.1007 28.4432 33.6325 28.4042 33.1643C28.4822 33.2033 28.5603 33.2033 28.6383 33.2423C28.9504 33.3593 29.2626 33.4374 29.5747 33.4764C29.9259 33.5544 30.277 33.5934 30.6672 33.6325C31.0183 33.6715 31.3305 33.6715 31.6816 33.6715H31.7596C31.9547 33.6715 32.1498 33.6715 32.3839 33.6325C33.0082 33.5934 33.6715 33.5154 34.3348 33.3593C35.8954 33.0082 37.261 32.4229 38.4315 31.6036C38.7046 31.4085 39.0168 31.1744 39.2509 30.9403C39.524 30.6672 39.7971 30.3941 40.0702 30.1209C41.1627 31.3695 42.9575 32.7741 45.8057 33.3984C46.7031 33.5934 47.6005 33.7105 48.4588 33.7105C49.7464 33.7105 50.8389 33.4764 51.6972 33.1643C51.5412 36.9879 50.9559 43.8939 48.6929 48.1467C47.2883 50.7218 46.0398 52.4776 44.6352 53.8431C43.3866 54.9746 41.982 55.911 40.0702 56.7694Z" fill="#FCC781"/>
<path d="M42.4503 40.8506C42.4503 39.446 41.2798 38.2755 39.8752 38.2755C38.4706 38.2755 37.3 39.446 37.3 40.8506C37.3 41.943 38.0024 42.8794 38.9778 43.2696L38.0804 46.7811C38.0414 46.9372 38.1584 47.0932 38.3145 47.0932H39.8752H41.4358C41.5919 47.0932 41.7089 46.9372 41.6699 46.7811L40.7725 43.2696C41.748 42.8794 42.4503 41.943 42.4503 40.8506Z" fill="#F89516"/>
</g>
<defs>
<clipPath id="clip0">
<rect width="85.6028" height="100" fill="white"/>
</clipPath>
</defs>
</svg>
