<svg width="24" height="24" viewBox="0 0 24 24" fill="none" xmlns="http://www.w3.org/2000/svg">
<path d="M21.8906 0.75H2.10938C0.946266 0.75 0 1.69627 0 2.85938V16.9219C0 18.085 0.946266 19.0313 2.10938 19.0313H4.26562V22.5469C4.26562 22.8313 4.43695 23.0877 4.69969 23.1965C4.96247 23.3053 5.26486 23.2451 5.46595 23.044L9.47873 19.0313H21.8906C23.0537 19.0313 24 18.085 24 16.9219V2.85938C24 1.69627 23.0537 0.75 21.8906 0.75ZM22.5938 16.9219C22.5938 17.3096 22.2783 17.625 21.8906 17.625H9.1875C9.00103 17.625 8.8222 17.6991 8.69034 17.831L5.67188 20.8493V18.3281C5.67188 17.9398 5.35706 17.625 4.96875 17.625H2.10938C1.72167 17.625 1.40625 17.3096 1.40625 16.9219V2.85938C1.40625 2.47167 1.72167 2.15625 2.10938 2.15625H21.8906C22.2783 2.15625 22.5938 2.47167 22.5938 2.85938V16.9219Z" fill="black"/>
<path d="M17.5916 8.24583C17.5094 7.989 17.2876 7.80188 17.0207 7.764L13.983 7.33303L12.6276 4.65155C12.5079 4.41483 12.2653 4.26562 12 4.26562C11.7348 4.26562 11.4922 4.41488 11.3725 4.65155L10.0171 7.33303L6.9794 7.764C6.7125 7.80188 6.49073 7.989 6.40851 8.24573C6.32629 8.50247 6.39815 8.78363 6.59343 8.96944L8.78137 11.0517L8.26565 13.9876C8.21948 14.2505 8.32612 14.5169 8.541 14.6753C8.75583 14.8336 9.04181 14.8567 9.27928 14.7348L12 13.3383L14.7208 14.7349C14.9583 14.8568 15.2443 14.8337 15.4591 14.6753C15.6739 14.517 15.7806 14.2506 15.7344 13.9877L15.2187 11.0518L17.4067 8.96953C17.6019 8.78367 17.6738 8.50256 17.5916 8.24583ZM13.9763 10.2929C13.8057 10.4552 13.7277 10.692 13.7685 10.9239L14.1047 12.8379L12.3211 11.9224C12.2204 11.8707 12.1102 11.8448 12 11.8448C11.8899 11.8448 11.7797 11.8707 11.679 11.9224L9.89541 12.8379L10.2316 10.9239C10.2724 10.692 10.1944 10.4552 10.0238 10.2929L8.61515 8.95223L10.5779 8.67375C10.8054 8.6415 11.0029 8.49994 11.1066 8.29481L12 6.52734L12.8935 8.29481C12.9972 8.49998 13.1946 8.6415 13.4222 8.67375L15.3849 8.95223L13.9763 10.2929Z" fill="black"/>
</svg>
