<svg width="24" height="24" viewBox="0 0 24 24" fill="none" xmlns="http://www.w3.org/2000/svg">
<g clip-path="url(#clip0)">
<path d="M23.998 12.1163C24.0153 11.9273 23.917 11.7464 23.7489 11.6583L19.3584 9.35669L23.6696 8.02423C23.8511 7.9682 23.9807 7.80835 23.9981 7.6192C24.0153 7.43024 23.917 7.24933 23.7489 7.16126L15.0189 2.58491C14.9092 2.52742 14.7814 2.51552 14.6629 2.55214L0.330357 6.98163C0.149083 7.03785 0.0192612 7.1977 0.00204934 7.38666C-0.0153456 7.57581 0.0829817 7.75653 0.251072 7.84479L3.26553 9.42498C3.74142 9.67437 4.22665 9.89868 4.7203 10.0981L0.328159 11.4794C0.147435 11.5362 0.0187119 11.6962 0.00186624 11.8848C-0.0149794 12.0736 0.083348 12.2538 0.251072 12.3417L4.64156 14.6433L0.330357 15.9757C0.149083 16.0318 0.0192612 16.1916 0.00204934 16.3808C-0.0153456 16.5697 0.0829817 16.7506 0.251072 16.8387L8.98115 21.4151C9.0489 21.4506 9.12379 21.4687 9.19886 21.4687C9.24537 21.4687 9.29206 21.4618 9.33729 21.4478L14.6827 19.7959C14.9299 19.7193 15.0685 19.4569 14.9919 19.2096C14.9156 18.9622 14.6532 18.8236 14.4058 18.9001L9.24519 20.495L1.69266 16.5359L5.81929 15.2605L8.98115 16.918C9.0489 16.9537 9.12379 16.9717 9.19886 16.9717C9.24537 16.9717 9.29206 16.9647 9.33729 16.9508L18.0881 14.2463L22.3073 16.458L17.9932 17.7914C17.7458 17.8678 17.6072 18.1303 17.6838 18.3777C17.7458 18.579 17.9311 18.708 18.1315 18.708C18.1772 18.708 18.2239 18.7013 18.2701 18.6872L23.6696 17.0183C23.8509 16.9623 23.9807 16.8023 23.998 16.6133C24.0153 16.4244 23.917 16.2434 23.7489 16.1554L19.3584 13.8537L23.6696 12.5213C23.8509 12.4653 23.9807 12.3054 23.998 12.1163ZM1.69266 7.54193L14.7548 3.50502L22.3073 7.46411L15.2259 9.65258C14.8828 9.7586 14.5377 9.8518 14.191 9.9331L13.2076 9.64526C11.9991 9.2915 11.0004 8.48859 10.3955 7.38428C10.3198 7.24585 10.1796 7.15503 10.0225 7.14221C9.86426 7.12921 9.71229 7.19641 9.61506 7.32074C8.75135 8.42578 7.45149 9.05951 6.04872 9.05951H4.66921C4.34273 8.91632 4.01955 8.7616 3.70077 8.5946L1.69266 7.54193ZM7.11513 9.89355C8.17823 9.68463 9.15107 9.16534 9.92011 8.39026C10.4987 9.20929 11.278 9.85144 12.189 10.2642C10.4848 10.4302 8.77314 10.305 7.11513 9.89355ZM9.24519 15.9979L1.6857 12.0351L6.20345 10.6144C6.42757 10.6802 6.65315 10.7408 6.88002 10.7968C6.82674 10.8744 6.79689 10.9676 6.79689 11.0625C6.79689 11.1857 6.84706 11.3068 6.93422 11.3939C7.02138 11.4811 7.14241 11.5312 7.26564 11.5312C7.38942 11.5312 7.5099 11.4811 7.59706 11.3939C7.68422 11.3068 7.73439 11.1857 7.73439 11.0625C7.73439 11.0354 7.73146 11.0085 7.72688 10.9819C8.23628 11.0788 8.75172 11.1513 9.27284 11.1991C9.76887 11.2447 10.264 11.2674 10.7576 11.2674C11.7259 11.2674 12.6885 11.1793 13.6395 11.005C13.6371 11.024 13.6355 11.0433 13.6355 11.0625C13.6355 11.1857 13.6857 11.3068 13.7728 11.3939C13.8605 11.4811 13.981 11.5312 14.1042 11.5312C14.2275 11.5312 14.3485 11.4811 14.4357 11.3939C14.5232 11.3068 14.5734 11.1857 14.5734 11.0625C14.5734 10.9775 14.5492 10.894 14.5056 10.8215C14.8398 10.7411 15.1723 10.6503 15.5028 10.5483L16.4822 10.2457C16.5042 10.2885 16.5326 10.3282 16.567 10.3627C16.6542 10.4498 16.7752 10.5 16.8984 10.5C17.0217 10.5 17.1427 10.4498 17.2298 10.3627C17.317 10.2755 17.3672 10.1545 17.3672 10.0312C17.3672 10.0118 17.3655 9.99261 17.363 9.97338L18.0881 9.74926L22.3073 11.961L9.24519 15.9979Z" fill="black"/>
<path d="M16.3353 18.3257C16.2115 18.3257 16.0907 18.3759 16.0035 18.463C15.9164 18.5502 15.8662 18.6712 15.8662 18.7944C15.8662 18.9177 15.9164 19.0387 16.0035 19.1259C16.0907 19.213 16.2115 19.2632 16.3353 19.2632C16.4587 19.2632 16.579 19.213 16.6667 19.1259C16.7539 19.0387 16.8041 18.9177 16.8041 18.7944C16.8041 18.6712 16.7541 18.5502 16.6667 18.463C16.5792 18.3759 16.4587 18.3257 16.3353 18.3257Z" fill="black"/>
<path d="M9.46069 13.9219C9.33746 13.9219 9.21661 13.972 9.12946 14.0592C9.04211 14.1464 8.99194 14.2674 8.99194 14.3906C8.99194 14.5139 9.04211 14.6349 9.12946 14.722C9.21661 14.8092 9.33746 14.8594 9.46069 14.8594C9.58411 14.8594 9.70496 14.8092 9.79211 14.722C9.87982 14.6349 9.92944 14.5139 9.92944 14.3906C9.92944 14.2674 9.87982 14.1464 9.79211 14.0592C9.70496 13.972 9.58447 13.9219 9.46069 13.9219Z" fill="black"/>
<path d="M6.72656 12.5391C6.60333 12.5391 6.4823 12.5892 6.39514 12.6764C6.30798 12.7635 6.25781 12.8846 6.25781 13.0078C6.25781 13.131 6.30798 13.2521 6.39514 13.3392C6.4823 13.4264 6.60333 13.4766 6.72656 13.4766C6.84979 13.4766 6.97083 13.4264 7.05798 13.3392C7.14514 13.2521 7.19531 13.131 7.19531 13.0078C7.19531 12.8846 7.14514 12.7635 7.05798 12.6764C6.97083 12.5892 6.84979 12.5391 6.72656 12.5391Z" fill="black"/>
<path d="M12.9844 12.5391C12.8611 12.5391 12.7401 12.5892 12.653 12.6764C12.5658 12.7635 12.5156 12.8846 12.5156 13.0078C12.5156 13.131 12.5658 13.2521 12.653 13.3392C12.7401 13.4264 12.8611 13.4766 12.9844 13.4766C13.1076 13.4766 13.2286 13.4264 13.3158 13.3392C13.403 13.2521 13.4531 13.131 13.4531 13.0078C13.4531 12.8846 13.403 12.7635 13.3158 12.6764C13.2286 12.5892 13.1076 12.5391 12.9844 12.5391Z" fill="black"/>
<path d="M16.5 11.1094C16.3768 11.1094 16.2557 11.1595 16.1686 11.2467C16.0814 11.3339 16.0312 11.4549 16.0312 11.5781C16.0312 11.7014 16.0814 11.8224 16.1686 11.9095C16.2557 11.9967 16.3768 12.0469 16.5 12.0469C16.6232 12.0469 16.7443 11.9967 16.8314 11.9095C16.9186 11.8224 16.9688 11.7014 16.9688 11.5781C16.9688 11.4549 16.9186 11.3339 16.8314 11.2467C16.7443 11.1595 16.6232 11.1094 16.5 11.1094Z" fill="black"/>
<path d="M10.5234 12.1154C10.4002 12.1154 10.2792 12.1655 10.192 12.2527C10.1049 12.3398 10.0547 12.4607 10.0547 12.5841C10.0547 12.7073 10.1049 12.8282 10.192 12.9155C10.2792 13.0027 10.4002 13.0529 10.5234 13.0529C10.6467 13.0529 10.7677 13.0027 10.8549 12.9155C10.942 12.8282 10.9922 12.7073 10.9922 12.5841C10.9922 12.4607 10.942 12.3398 10.8549 12.2527C10.7677 12.1655 10.6467 12.1154 10.5234 12.1154Z" fill="black"/>
</g>
<defs>
<clipPath id="clip0">
<rect width="24" height="24" fill="white"/>
</clipPath>
</defs>
</svg>
