<svg width="32" height="38" viewBox="0 0 32 38" fill="none" xmlns="http://www.w3.org/2000/svg">
<path d="M27.1805 12C29.5557 14.6538 31 18.1582 31 22C31 30.2843 24.2843 37 16 37C7.71573 37 1 30.2843 1 22C1 18.1582 2.44428 14.6538 4.8195 12" stroke="black" stroke-width="2" stroke-linecap="round" stroke-linejoin="round"/>
<path d="M21.3488 10.4997C20.9818 10.1345 20.3882 10.1359 20.023 10.5029L16.75 13.7917V0.9375C16.75 0.419719 16.3303 0 15.8125 0C15.2947 0 14.875 0.419719 14.875 0.9375V13.7918L11.602 10.5028C11.2367 10.1359 10.6432 10.1344 10.2762 10.4997C9.90915 10.865 9.90779 11.4586 10.273 11.8256L15.148 16.7242L15.1489 16.725C15.5141 17.0911 16.1096 17.0922 16.4761 16.7251L16.477 16.7242L21.352 11.8256C21.7171 11.4587 21.7159 10.865 21.3488 10.4997Z" fill="#3AAC59"/>
<circle cx="16" cy="3" r="3" fill="#3AAC59"/>
</svg>
