<svg width="32" height="38" viewBox="0 0 32 38" fill="none" xmlns="http://www.w3.org/2000/svg">
<path d="M27.1805 12C29.5557 14.6538 31 18.1582 31 22C31 30.2843 24.2843 37 16 37C7.71573 37 1 30.2843 1 22C1 18.1582 2.44428 14.6538 4.8195 12" stroke="black" stroke-width="2" stroke-linecap="round" stroke-linejoin="round"/>
<path d="M21.3488 6.50026C20.9818 6.86551 20.3882 6.8641 20.023 6.49712L16.75 3.20827V16.0625C16.75 16.5803 16.3303 17 15.8125 17C15.2947 17 14.875 16.5803 14.875 16.0625V3.20823L11.602 6.49716C11.2367 6.86415 10.6432 6.86555 10.2762 6.50031C9.90915 6.13501 9.90779 5.54143 10.273 5.17445L15.148 0.275824L15.1489 0.274981C15.5141 -0.0910664 16.1096 -0.0922394 16.4761 0.274933L16.477 0.275776L21.352 5.1744C21.7171 5.54134 21.7159 6.13496 21.3488 6.50026Z" fill="#3AAC59"/>
<circle cx="16" cy="17" r="3" fill="#3AAC59"/>
</svg>
