<svg width="24" height="24" viewBox="0 0 24 24" fill="none" xmlns="http://www.w3.org/2000/svg">
<g clip-path="url(#clip0)">
<path d="M15.4146 17.2844C15.1622 17.1328 14.9033 16.9803 14.6443 16.8309C14.7052 16.312 14.7053 15.7871 14.6446 15.2692C14.9045 15.1192 15.1634 14.9669 15.4145 14.8159C15.8373 14.5618 16.0135 14.0257 15.8244 13.5689C15.8244 13.5689 15.8244 13.5689 15.8243 13.5688L15.2725 12.2367C15.0833 11.78 14.5799 11.5254 14.101 11.6447C13.8164 11.7155 13.5257 11.7908 13.2359 11.8686C12.9124 11.4592 12.5412 11.0881 12.1314 10.7645C12.2091 10.4747 12.2845 10.1838 12.3554 9.8991C12.4747 9.42046 12.2201 8.91684 11.7634 8.72761L10.4313 8.17584C9.97455 7.98656 9.43834 8.16267 9.18419 8.58557C9.03283 8.83748 8.88034 9.09646 8.73072 9.35587C8.21195 9.29498 7.68714 9.29484 7.16903 9.35554C7.01894 9.09534 6.86655 8.83645 6.71575 8.58557C6.4615 8.16276 5.92544 7.98661 5.46864 8.17584L4.13655 8.72761C3.67989 8.91679 3.42526 9.42046 3.54456 9.8991C3.61558 10.1843 3.69086 10.4752 3.76844 10.7642C3.35917 11.0876 2.98802 11.4589 2.66439 11.8687C2.37395 11.7907 2.08305 11.7155 1.79894 11.6447C1.32016 11.5253 0.816625 11.7801 0.62739 12.2368L0.0757183 13.5688C-0.113422 14.0256 0.0627808 14.5617 0.4855 14.8158C0.737453 14.9672 0.996437 15.1196 1.2558 15.2693C1.19495 15.788 1.19481 16.3128 1.25552 16.831C0.995921 16.9807 0.737078 17.1331 0.485406 17.2844C0.062687 17.5385 -0.113516 18.0745 0.0756714 18.5314L0.627484 19.8635C0.816671 20.3202 1.32006 20.5748 1.79903 20.4555C2.08328 20.3847 2.37409 20.3094 2.66402 20.2316C2.9875 20.6409 3.3587 21.0119 3.76853 21.3357C3.69072 21.6258 3.61539 21.9167 3.54456 22.201C3.42526 22.6797 3.6798 23.1833 4.13655 23.3725L5.46869 23.9243C5.59244 23.9756 5.72195 24 5.85011 24C6.1952 24 6.53045 23.8229 6.71594 23.5147C6.86617 23.2647 7.01856 23.0058 7.16941 22.7444C7.68808 22.8052 8.21303 22.8053 8.73109 22.7447C8.88011 23.0031 9.0325 23.2619 9.18437 23.5147C9.43853 23.9375 9.97459 24.1136 10.4315 23.9244L11.7636 23.3727C12.2202 23.1835 12.4749 22.6798 12.3556 22.2012C12.2851 21.9184 12.2098 21.6276 12.1317 21.3361C12.5409 21.0127 12.9121 20.6414 13.2358 20.2316C13.5254 20.3093 13.8163 20.3846 14.1011 20.4555C14.5797 20.5749 15.0834 20.3204 15.2726 19.8635L15.8244 18.5314C16.0135 18.0746 15.8373 17.5385 15.4146 17.2844ZM14.3023 19.3985C14.0287 19.33 13.7498 19.2575 13.4725 19.1828C13.0799 19.0772 12.6655 19.2152 12.4169 19.5347C12.1312 19.9017 11.8005 20.2325 11.434 20.5178C11.115 20.7663 10.9771 21.1805 11.0828 21.5729C11.158 21.852 11.2304 22.1307 11.2985 22.4024L10.074 22.9095C9.92837 22.6665 9.78255 22.4182 9.64 22.1706C9.43717 21.8183 9.0468 21.6232 8.6455 21.6728C8.18467 21.7301 7.71691 21.73 7.25547 21.6726C6.85305 21.6226 6.463 21.8178 6.26022 22.1701C6.11594 22.4206 5.97006 22.6691 5.82601 22.9095L4.60155 22.4023C4.67003 22.1292 4.7425 21.8503 4.81731 21.5726C4.92302 21.18 4.78487 20.7656 4.46542 20.5169C4.09839 20.2312 3.76769 19.9006 3.48231 19.5342C3.23387 19.215 2.81969 19.0772 2.42716 19.1829C2.14952 19.2577 1.87075 19.3301 1.5977 19.3986L1.09052 18.1741C1.33239 18.0291 1.58078 17.8833 1.8295 17.7401C2.18177 17.5372 2.37714 17.147 2.32727 16.7456C2.26994 16.2847 2.27008 15.817 2.32741 15.3555C2.37747 14.9538 2.18223 14.5631 1.82978 14.3602C1.58116 14.2171 1.33272 14.0712 1.09047 13.9259L1.59766 12.7015C1.87047 12.7699 2.14928 12.8424 2.42744 12.9172C2.81987 13.023 3.23425 12.8848 3.48306 12.5654C3.76876 12.1983 4.09947 11.8676 4.4658 11.5823C4.78492 11.3338 4.92278 10.9196 4.81708 10.527C4.74255 10.2503 4.67008 9.97157 4.60141 9.69764L5.82587 9.1905C5.97044 9.43171 6.11631 9.68006 6.25989 9.92948C6.46277 10.2817 6.85347 10.4774 7.25439 10.4272C7.71503 10.3699 8.1827 10.3699 8.64456 10.4274C9.04652 10.4775 9.43698 10.282 9.63976 9.92976C9.78287 9.68114 9.9288 9.4327 10.0739 9.1905L11.2984 9.69764C11.2299 9.97106 11.1574 10.2499 11.0826 10.5275C10.9769 10.92 11.1151 11.3344 11.4345 11.583C11.8015 11.8687 12.1322 12.1994 12.4176 12.5658C12.6661 12.8849 13.0801 13.0227 13.4728 12.9171C13.7503 12.8423 14.029 12.7699 14.3022 12.7014L14.8094 13.9258C14.5678 14.0706 14.3195 14.2164 14.0704 14.3599C13.7181 14.5627 13.5227 14.953 13.5726 15.3544C13.63 15.815 13.6299 16.2828 13.5724 16.7445C13.5224 17.1463 13.7178 17.5369 14.0701 17.7397C14.3183 17.8827 14.5668 18.0285 14.8094 18.1739L14.3023 19.3985Z" fill="black"/>
<path d="M11.3326 14.649C11.3326 14.649 11.3326 14.649 11.3326 14.649C10.5601 12.7839 8.41435 11.895 6.54896 12.6675C4.6839 13.4401 3.79496 15.586 4.56755 17.4512C4.94176 18.3547 5.64554 19.0584 6.54901 19.4327C7.00074 19.6197 7.4754 19.7133 7.95005 19.7133C8.42471 19.7133 8.89937 19.6197 9.35119 19.4327C11.2163 18.6601 12.1051 16.5142 11.3326 14.649ZM8.94005 18.4401C8.30171 18.7045 7.59863 18.7045 6.9601 18.4401C6.32176 18.1757 5.82455 17.6785 5.56009 17.0401C5.01413 15.7222 5.64226 14.2059 6.96015 13.66C7.28288 13.5264 7.61738 13.4631 7.94673 13.4631C8.96237 13.4631 9.9279 14.0649 10.3402 15.0601C10.886 16.378 10.2579 17.8942 8.94005 18.4401Z" fill="black"/>
<path d="M23.276 4.73137C23.0906 4.70362 22.9001 4.67667 22.7083 4.65108C22.6117 4.32966 22.4826 4.01803 22.3233 3.72206C22.4407 3.56855 22.5563 3.41475 22.6681 3.26367C22.9163 2.928 22.8804 2.45194 22.5847 2.15634L21.8437 1.41544C21.548 1.11966 21.0719 1.0838 20.7363 1.33209C20.5847 1.44427 20.431 1.55991 20.2779 1.67686C19.982 1.51758 19.6704 1.38848 19.3489 1.29178C19.3233 1.09997 19.2964 0.909516 19.2687 0.724125C19.2069 0.311344 18.845 0 18.4267 0H17.3788C16.9606 0 16.5986 0.311344 16.5369 0.724078C16.5092 0.909375 16.4823 1.09987 16.4566 1.29173C16.1351 1.38844 15.8235 1.51753 15.5276 1.67681C15.3747 1.55981 15.2208 1.44412 15.0693 1.33205C14.7336 1.08375 14.2575 1.11961 13.9619 1.41534L13.221 2.1562C12.9252 2.45189 12.8893 2.928 13.1376 3.26372C13.2493 3.41475 13.365 3.56859 13.4823 3.72206C13.3231 4.01798 13.194 4.32956 13.0972 4.65108C12.9055 4.67672 12.715 4.70362 12.5296 4.73137C12.1168 4.79316 11.8054 5.15508 11.8054 5.57334V6.62123C11.8054 7.03945 12.1167 7.40142 12.5295 7.4632C12.7149 7.49095 12.9054 7.51791 13.0972 7.5435C13.1939 7.86497 13.323 8.17655 13.4822 8.47252C13.365 8.62589 13.2493 8.77964 13.1374 8.93091C12.8892 9.26648 12.9251 9.74264 13.2208 10.0382L13.9618 10.7792C14.2575 11.075 14.7336 11.1108 15.0692 10.8625C15.2208 10.7505 15.3745 10.6347 15.5275 10.5178C15.8235 10.6771 16.1352 10.8062 16.4566 10.9028C16.4821 11.0946 16.5091 11.2851 16.5368 11.4705C16.5986 11.8833 16.9606 12.1947 17.3788 12.1947H18.4267C18.845 12.1947 19.2069 11.8834 19.2687 11.4705C19.2964 11.2851 19.3233 11.0946 19.3489 10.9028C19.6704 10.8062 19.982 10.677 20.2779 10.5177C20.4309 10.6347 20.5847 10.7504 20.7363 10.8625C21.0719 11.1108 21.548 11.075 21.8437 10.7792L22.5847 10.0383C22.8804 9.74264 22.9163 9.26653 22.668 8.93086C22.5562 8.77964 22.4405 8.6258 22.3233 8.47256C22.4825 8.17664 22.6116 7.86511 22.7083 7.54355C22.9001 7.51791 23.0906 7.491 23.276 7.46325C23.6888 7.40147 24.0001 7.03955 24.0001 6.62128V5.57339C24.0001 5.15513 23.6888 4.79316 23.276 4.73137ZM22.9795 6.47541C22.8112 6.49983 22.6394 6.52355 22.467 6.546C22.1261 6.59048 21.847 6.83245 21.7561 7.16236C21.6691 7.47825 21.5428 7.78308 21.3807 8.06836C21.2115 8.36616 21.2376 8.73469 21.4472 9.00736C21.5529 9.1448 21.6578 9.28312 21.7598 9.41981L21.2253 9.95442C21.0882 9.85209 20.9498 9.74728 20.8127 9.64181C20.5402 9.43205 20.1715 9.40613 19.8737 9.5752C19.5884 9.7373 19.2835 9.86363 18.9678 9.95067C18.6377 10.0416 18.3958 10.3207 18.3514 10.6615C18.329 10.8339 18.3053 11.0057 18.2808 11.1741H17.5247C17.5003 11.0057 17.4766 10.8339 17.4541 10.6617C17.4097 10.3208 17.1677 10.0417 16.8377 9.95072C16.5219 9.86372 16.2172 9.73739 15.9318 9.5753C15.6339 9.40608 15.2653 9.43209 14.9928 9.64181C14.8556 9.74733 14.7174 9.85209 14.5802 9.95442L14.0456 9.41981C14.1477 9.28298 14.2525 9.14475 14.3583 9.00717C14.5679 8.73459 14.594 8.36606 14.4247 8.06827C14.2627 7.78298 14.1364 7.47811 14.0493 7.16231C13.9584 6.83231 13.6794 6.59039 13.3385 6.54591C13.1661 6.52341 12.9943 6.49978 12.8259 6.47527V5.71927C12.9943 5.69484 13.1661 5.67112 13.3384 5.64867C13.6793 5.60419 13.9584 5.36222 14.0493 5.03231C14.1363 4.71647 14.2626 4.41164 14.4247 4.12631C14.594 3.82852 14.5679 3.45994 14.3583 3.18736C14.2524 3.04973 14.1476 2.91145 14.0456 2.77486L14.5802 2.24025C14.7173 2.34258 14.8556 2.44739 14.9927 2.55281C15.2651 2.76258 15.6337 2.78873 15.9318 2.61947C16.217 2.45742 16.5219 2.33109 16.8376 2.244C17.1677 2.15306 17.4097 1.87397 17.454 1.53314C17.4765 1.36078 17.5003 1.18898 17.5247 1.02061H18.2808C18.3052 1.18894 18.3289 1.36073 18.3513 1.533C18.3958 1.87397 18.6378 2.15306 18.9677 2.24395C19.2836 2.331 19.5885 2.45738 19.8737 2.61942C20.1716 2.78869 20.5402 2.76239 20.8126 2.55286C20.9498 2.44739 21.0881 2.34258 21.2253 2.24025L21.7598 2.77486C21.6579 2.9115 21.5531 3.04983 21.4472 3.1875C21.2376 3.46003 21.2115 3.82856 21.3807 4.12636C21.5427 4.41173 21.669 4.71661 21.7561 5.03236C21.847 5.36236 22.126 5.60428 22.467 5.64877C22.6393 5.67127 22.8112 5.69494 22.9795 5.71941V6.47541Z" fill="black"/>
<path d="M17.9026 3.92224C16.7033 3.92224 15.7275 4.89794 15.7275 6.09729C15.7275 7.29668 16.7032 8.27238 17.9026 8.27238C19.1019 8.27238 20.0776 7.29668 20.0776 6.09729C20.0776 4.89794 19.1019 3.92224 17.9026 3.92224ZM17.9026 7.30549C17.2364 7.30549 16.6944 6.76347 16.6944 6.09724C16.6944 5.43101 17.2364 4.88904 17.9026 4.88904C18.5688 4.88904 19.1107 5.43105 19.1108 6.09724C19.1108 6.76347 18.5688 7.30549 17.9026 7.30549Z" fill="black"/>
</g>
<defs>
<clipPath id="clip0">
<rect width="24" height="24" fill="white"/>
</clipPath>
</defs>
</svg>
